<?xml version="1.0" encoding="utf-8"?>
<svg xmlns="http://www.w3.org/2000/svg"
	xmlns:xlink="http://www.w3.org/1999/xlink"
	width="25px" height="18px" viewBox="0 0 25 18">
<path fillRule="evenodd" d="M 1.17 12.87C 1.17 12.87 4.33 14.33 5.65 14.33 5.65 14.33 8.15 15 9.81 12.84 9.81 12.84 10.21 12.25 9.66 11.96 9.66 11.96 4.27 10.38 4.65 9.44 4.65 9.44 4.63 8.92 5.32 9.04 5.32 9.04 6.1 8.26 5.72 8.02 5.72 8.02 5.12 7.25 5.6 7.2 5.6 7.2 6.82 7.53 7.27 7.65 7.27 7.65 7.58 7.54 7.3 7.32 7.01 7.1 6.5 6.68 6.6 6.59 6.6 6.59 6.8 6.12 7.56 6.45 7.56 6.45 7.8 6.41 7.58 6.17 7.58 6.17 7.03 5.78 7.34 5.47 7.34 5.47 8.22 4.84 10.44 7.54 10.44 7.54 10.85 8.09 10.9 7.57 10.9 7.57 12.51 0.7 15.12 0.25 15.12 0.25 15.95 0.41 16.12 0.15 16.12 0.15 16.84-0.14 17.08 0.1 17.08 0.1 17.32 0.46 17.61 0.25 17.61 0.25 18.64-0.16 18.33 0.51 18.33 0.51 17.27 1.46 16.91 1.48 16.55 1.5 16.62 1.84 16.93 1.89 16.93 1.89 21.31 2.27 21.31 5.47 21.31 5.47 21.56 6.24 22.37 5.45 22.37 5.45 23.6 4.66 23.91 4.63 23.91 4.63 24.25 4.41 24.2 4.91 24.2 4.91 23.32 6.45 22.41 6.88 22.41 6.88 21.86 7.57 22.65 7.43 22.65 7.43 23.41 7.27 23.77 7.05 23.77 7.05 24.7 6.6 24.27 7.41 24.27 7.41 22.31 8.68 21.88 8.68 21.88 8.68 21.59 8.76 21.59 9.02 21.59 9.02 21.33 17.38 10.38 17.38 10.38 17.38 4.9 17.7 1.31 13.49 1.31 13.49 0.62 12.75 1.17 12.87Z" fill="rgb(235,235,235)"/></svg>